<svg xmlns="http://www.w3.org/2000/svg" width="27" height="23" viewBox="0 0 27 23" fill="#000">
  <g id="web-development" transform="translate(0 -1)">
    <path id="Path_3282" data-name="Path 3282" d="M24.627,1H2.373A2.224,2.224,0,0,0,0,3.029V21.971A2.224,2.224,0,0,0,2.373,24H24.627A2.224,2.224,0,0,0,27,21.971V3.029A2.224,2.224,0,0,0,24.627,1ZM2.373,2.353H24.627a.741.741,0,0,1,.791.676V6.412H1.582V3.029A.741.741,0,0,1,2.373,2.353ZM24.627,22.647H2.373a.741.741,0,0,1-.791-.676V7.765H25.418V21.971A.741.741,0,0,1,24.627,22.647Z" fill="#000"/>
    <path id="Path_3283" data-name="Path 3283" d="M201.845,196.051a.846.846,0,0,0-1.039.355l-4.746,9.471a.644.644,0,0,0,.415.888.846.846,0,0,0,1.039-.355l4.746-9.471A.644.644,0,0,0,201.845,196.051Z" transform="translate(-185.66 -186.202)" fill="#000"/>
    <path id="Path_3284" data-name="Path 3284" d="M81.367,241.253a.885.885,0,0,0-1.112-.106L76.3,243.853a.619.619,0,0,0,0,1.056l3.955,2.706a.885.885,0,0,0,1.112-.106.613.613,0,0,0-.124-.951l-3.183-2.178,3.183-2.178A.613.613,0,0,0,81.367,241.253Z" transform="translate(-71.996 -229.176)" fill="#000"/>
    <path id="Path_3285" data-name="Path 3285" d="M336.24,243.853l-3.955-2.706a.885.885,0,0,0-1.112.106.613.613,0,0,0,.124.951l3.183,2.178-3.183,2.178a.613.613,0,0,0-.124.951.885.885,0,0,0,1.112.106l3.955-2.706A.619.619,0,0,0,336.24,243.853Z" transform="translate(-313.544 -229.175)" fill="#000"/>
    <circle id="Ellipse_272" data-name="Ellipse 272" cx="0.5" cy="0.5" r="0.5" transform="translate(4 4)" fill="#000"/>
    <ellipse id="Ellipse_273" data-name="Ellipse 273" cx="1" cy="0.5" rx="1" ry="0.5" transform="translate(6 4)" fill="#000"/>
    <ellipse id="Ellipse_274" data-name="Ellipse 274" cx="1.5" cy="0.5" rx="1.5" ry="0.5" transform="translate(9 4)" fill="#000"/>
    <path id="Path_3286" data-name="Path 3286" d="M331.791,62.353h4.746a.685.685,0,1,0,0-1.353h-4.746a.685.685,0,1,0,0,1.353Z" transform="translate(-313.545 -57.294)" fill="#000"/>
  </g>
</svg>
