<svg xmlns="http://www.w3.org/2000/svg" width="23.007" height="27.489" viewBox="0 0 23.007 27.489">
  <g id="bell" transform="translate(0.3 0.3)">
    <g id="Group_724" data-name="Group 724" transform="translate(8.963 0)">
      <path id="Path_326" data-name="Path 326" d="M13.921,4.683a.56.56,0,0,1-.56-.56V2.241a1.12,1.12,0,0,0-2.241,0V4.123a.56.56,0,1,1-1.12,0V2.241a2.241,2.241,0,0,1,4.481,0V4.123A.56.56,0,0,1,13.921,4.683Z" transform="translate(-10 0)" fill="#fff" stroke="#fff" stroke-width="0.6"/>
    </g>
    <g id="Group_725" data-name="Group 725" transform="translate(7.282 22.407)">
      <path id="Path_327" data-name="Path 327" d="M12.421,24.481A3.926,3.926,0,0,1,8.5,20.56a.56.56,0,0,1,1.12,0,2.8,2.8,0,1,0,5.6,0,.56.56,0,1,1,1.12,0A3.926,3.926,0,0,1,12.421,24.481Z" transform="translate(-8.5 -20)" fill="#fff" stroke="#fff" stroke-width="0.6"/>
    </g>
    <g id="Group_726" data-name="Group 726" transform="translate(0 3.361)">
      <path id="Path_328" data-name="Path 328" d="M22.727,23.167H3.681a1.681,1.681,0,0,1-1.092-2.958,7.789,7.789,0,0,0,2.773-5.963v-3.4a7.843,7.843,0,1,1,15.685,0v3.4A7.781,7.781,0,0,0,23.81,20.2a1.681,1.681,0,0,1-1.083,2.966ZM13.2,4.12a6.729,6.729,0,0,0-6.722,6.722v3.4a8.9,8.9,0,0,1-3.161,6.811.56.56,0,0,0,.36.989H22.727a.56.56,0,0,0,.364-.986,8.908,8.908,0,0,1-3.165-6.814v-3.4A6.729,6.729,0,0,0,13.2,4.12Z" transform="translate(-2 -3)" fill="#fff" stroke="#fff" stroke-width="0.6"/>
    </g>
  </g>
</svg>
