<svg xmlns="http://www.w3.org/2000/svg" width="904.059" height="832.768" viewBox="0 0 904.059 832.768">
  <path id="Path_3421" data-name="Path 3421" d="M488.537,217.931a2.205,2.205,0,1,1,2.205,2.2,2.212,2.212,0,0,1-2.205-2.2m-11.806,0a2.205,2.205,0,1,1,2.205,2.2,2.211,2.211,0,0,1-2.205-2.2m23.6-.22a2.207,2.207,0,1,1,2.4,2h-.206a2.192,2.192,0,0,1-2.191-2m11.7-1.484a2.207,2.207,0,0,1,4.323-.9,2.226,2.226,0,0,1-1.72,2.616,2.394,2.394,0,0,1-.456.044,2.2,2.2,0,0,1-2.147-1.764m11.453-2.792a2.176,2.176,0,1,1,2.088,1.514,2.216,2.216,0,0,1-2.088-1.514m11.057-4.1a2.2,2.2,0,1,1,2.926,1.073,2.074,2.074,0,0,1-.926.206,2.2,2.2,0,0,1-2-1.279m10.513-5.32a2.207,2.207,0,1,1,3.029.735,2.293,2.293,0,0,1-1.147.323,2.217,2.217,0,0,1-1.882-1.058m9.851-6.5a2.2,2.2,0,1,1,3.088.382,2.136,2.136,0,0,1-1.353.47,2.172,2.172,0,0,1-1.735-.852m9.042-7.554a2.2,2.2,0,1,1,1.573.661,2.221,2.221,0,0,1-1.573-.661m8.131-8.539a2.225,2.225,0,1,1,1.382.485,2.213,2.213,0,0,1-1.382-.485m7.116-9.406a2.184,2.184,0,1,1,1.191.353,2.195,2.195,0,0,1-1.191-.353m6.014-10.156a2.18,2.18,0,0,1-1.014-2.939v-.015a2.206,2.206,0,1,1,1.985,3.175,2.041,2.041,0,0,1-.97-.22m4.808-10.758a2.206,2.206,0,1,1,1.47-4.159,2.2,2.2,0,0,1-.735,4.277,2.482,2.482,0,0,1-.735-.118m3.543-11.258a2.2,2.2,0,1,1,.485.059,1.828,1.828,0,0,1-.485-.059m2.22-11.567a2.211,2.211,0,1,1,2.441-1.955,2.186,2.186,0,0,1-2.191,1.955Zm-1.294-13.962h0a2.205,2.205,0,1,1,2.205,2.2,2.2,2.2,0,0,1-2.205-2.2m-.647-11.522a2.2,2.2,0,0,1,1.926-2.44,2.2,2.2,0,1,1,.5,4.38,1.345,1.345,0,0,1-.25.015,2.182,2.182,0,0,1-2.176-1.955m-1.956-11.361h0a2.2,2.2,0,1,1,2.645,1.646,2,2,0,0,1-.5.059,2.2,2.2,0,0,1-2.147-1.7m-3.249-11.067a2.25,2.25,0,1,1,2.088,1.455,2.209,2.209,0,0,1-2.088-1.455M584.15,69.741h0a2.206,2.206,0,1,1,2.955,1,2.1,2.1,0,0,1-.971.235,2.22,2.22,0,0,1-1.985-1.235M578.49,59.688h-.015a2.208,2.208,0,1,1,3.058.661,2.087,2.087,0,0,1-1.191.353,2.159,2.159,0,0,1-1.852-1.014m-6.778-9.333h0a2.2,2.2,0,0,1,3.411-2.792,2.214,2.214,0,0,1-.309,3.116,2.225,2.225,0,0,1-3.1-.323m-7.793-8.51a2.209,2.209,0,1,1,3.117-.044,2.181,2.181,0,0,1-1.573.661,2.218,2.218,0,0,1-1.544-.617m-8.7-7.584a2.205,2.205,0,1,1,3.1-.382,2.242,2.242,0,0,1-3.1.382m-9.5-6.555a2.2,2.2,0,1,1,1.147.323,2.153,2.153,0,0,1-1.147-.323m-10.189-5.423a2.2,2.2,0,1,1,.925.206,2.346,2.346,0,0,1-.925-.206m-10.733-4.233v.015a2.225,2.225,0,1,1,.691.1,1.848,1.848,0,0,1-.691-.118m-11.16-2.969a2.211,2.211,0,0,1-1.72-2.6,2.234,2.234,0,0,1,2.617-1.72h-.015a2.2,2.2,0,0,1-.441,4.365,2.245,2.245,0,0,1-.441-.044m-11.409-1.675a2.206,2.206,0,0,1,.382-4.394l.015.015a2.2,2.2,0,0,1-.206,4.394.839.839,0,0,1-.191-.015m-13.791-2.6a2.205,2.205,0,1,1,2.205,2.2,2.2,2.2,0,0,1-2.205-2.2m-11.806,0a2.205,2.205,0,1,1,2.205,2.2,2.2,2.2,0,0,1-2.205-2.2" transform="translate(305.161 -8.601)" fill="#ccc"/>
  <path id="Path_3486" data-name="Path 3486" d="M586.988,217.931a2.205,2.205,0,1,0-2.205,2.2,2.211,2.211,0,0,0,2.205-2.2m11.807,0a2.205,2.205,0,1,0-2.205,2.2,2.211,2.211,0,0,0,2.205-2.2m-23.6-.22a2.207,2.207,0,1,0-2.4,2h.206a2.192,2.192,0,0,0,2.191-2m-11.7-1.484a2.207,2.207,0,0,0-4.323-.9,2.226,2.226,0,0,0,1.72,2.616,2.394,2.394,0,0,0,.456.044,2.2,2.2,0,0,0,2.147-1.764m-11.453-2.792a2.176,2.176,0,1,0-2.088,1.514,2.216,2.216,0,0,0,2.088-1.514m-11.057-4.1a2.2,2.2,0,1,0-2.926,1.073,2.074,2.074,0,0,0,.926.206,2.2,2.2,0,0,0,2-1.279m-10.513-5.32a2.207,2.207,0,1,0-3.029.735,2.293,2.293,0,0,0,1.147.323,2.217,2.217,0,0,0,1.882-1.058m-9.851-6.5a2.2,2.2,0,1,0-3.088.382,2.136,2.136,0,0,0,1.353.47,2.172,2.172,0,0,0,1.735-.852m-9.042-7.554a2.2,2.2,0,1,0-1.573.661,2.221,2.221,0,0,0,1.573-.661m-8.131-8.539a2.225,2.225,0,1,0-1.382.485,2.213,2.213,0,0,0,1.382-.485m-7.116-9.406a2.184,2.184,0,1,0-1.191.353,2.195,2.195,0,0,0,1.191-.353m-6.014-10.156a2.18,2.18,0,0,0,1.014-2.939v-.015a2.206,2.206,0,1,0-1.985,3.175,2.041,2.041,0,0,0,.97-.22M485.509,151.1a2.206,2.206,0,1,0-1.47-4.159,2.2,2.2,0,0,0,.735,4.277,2.482,2.482,0,0,0,.735-.118m-3.543-11.258a2.2,2.2,0,1,0-.485.059,1.828,1.828,0,0,0,.485-.059m-2.22-11.567a2.211,2.211,0,1,0-2.441-1.955,2.186,2.186,0,0,0,2.191,1.955Zm1.294-13.962h0a2.205,2.205,0,1,0-2.205,2.2,2.2,2.2,0,0,0,2.205-2.2m.647-11.522a2.2,2.2,0,0,0-1.926-2.44,2.2,2.2,0,1,0-.5,4.38,1.345,1.345,0,0,0,.25.015,2.182,2.182,0,0,0,2.176-1.955m1.956-11.361h0A2.2,2.2,0,1,0,481,93.079a2,2,0,0,0,.5.059,2.2,2.2,0,0,0,2.147-1.7m3.249-11.067a2.25,2.25,0,1,0-2.088,1.455,2.209,2.209,0,0,0,2.088-1.455m4.484-10.626h0a2.206,2.206,0,1,0-2.955,1,2.1,2.1,0,0,0,.971.235,2.22,2.22,0,0,0,1.985-1.235m5.661-10.053h.015a2.208,2.208,0,1,0-3.058.661,2.087,2.087,0,0,0,1.191.353,2.159,2.159,0,0,0,1.852-1.014m6.778-9.333h0a2.2,2.2,0,0,0-3.411-2.792,2.214,2.214,0,0,0,.309,3.116,2.225,2.225,0,0,0,3.1-.323m7.793-8.51a2.209,2.209,0,1,0-3.117-.044,2.181,2.181,0,0,0,1.573.661,2.218,2.218,0,0,0,1.544-.617m8.7-7.584a2.205,2.205,0,1,0-3.1-.382,2.242,2.242,0,0,0,3.1.382m9.5-6.555a2.2,2.2,0,1,0-1.147.323,2.153,2.153,0,0,0,1.147-.323M540,22.284a2.2,2.2,0,1,0-.925.206,2.346,2.346,0,0,0,.925-.206m10.733-4.233v.015a2.225,2.225,0,1,0-.691.1,1.848,1.848,0,0,0,.691-.118m11.16-2.969a2.211,2.211,0,0,0,1.72-2.6,2.234,2.234,0,0,0-2.617-1.72h.015a2.2,2.2,0,0,0,.441,4.365,2.245,2.245,0,0,0,.441-.044M573.3,13.407a2.206,2.206,0,0,0-.382-4.394l-.015.015a2.2,2.2,0,0,0,.206,4.394.839.839,0,0,0,.191-.015m13.791-2.6a2.205,2.205,0,1,0-2.205,2.2,2.2,2.2,0,0,0,2.205-2.2m11.806,0a2.205,2.205,0,1,0-2.205,2.2,2.2,2.2,0,0,0,2.205-2.2" transform="translate(-476.628 197.982)" fill="#ccc"/>
  <path id="Path_3485" data-name="Path 3485" d="M488.537,217.931a2.205,2.205,0,1,1,2.205,2.2,2.212,2.212,0,0,1-2.205-2.2m-11.806,0a2.205,2.205,0,1,1,2.205,2.2,2.211,2.211,0,0,1-2.205-2.2m23.6-.22a2.207,2.207,0,1,1,2.4,2h-.206a2.192,2.192,0,0,1-2.191-2m11.7-1.484a2.207,2.207,0,0,1,4.323-.9,2.226,2.226,0,0,1-1.72,2.616,2.394,2.394,0,0,1-.456.044,2.2,2.2,0,0,1-2.147-1.764m11.453-2.792a2.176,2.176,0,1,1,2.088,1.514,2.216,2.216,0,0,1-2.088-1.514m11.057-4.1a2.2,2.2,0,1,1,2.926,1.073,2.074,2.074,0,0,1-.926.206,2.2,2.2,0,0,1-2-1.279m10.513-5.32a2.207,2.207,0,1,1,3.029.735,2.293,2.293,0,0,1-1.147.323,2.217,2.217,0,0,1-1.882-1.058m9.851-6.5a2.2,2.2,0,1,1,3.088.382,2.136,2.136,0,0,1-1.353.47,2.172,2.172,0,0,1-1.735-.852m9.042-7.554a2.2,2.2,0,1,1,1.573.661,2.221,2.221,0,0,1-1.573-.661m8.131-8.539a2.225,2.225,0,1,1,1.382.485,2.213,2.213,0,0,1-1.382-.485m7.116-9.406a2.184,2.184,0,1,1,1.191.353,2.195,2.195,0,0,1-1.191-.353m6.014-10.156a2.18,2.18,0,0,1-1.014-2.939v-.015a2.206,2.206,0,1,1,1.985,3.175,2.041,2.041,0,0,1-.97-.22m4.808-10.758a2.206,2.206,0,1,1,1.47-4.159,2.2,2.2,0,0,1-.735,4.277,2.482,2.482,0,0,1-.735-.118m3.543-11.258a2.2,2.2,0,1,1,.485.059,1.828,1.828,0,0,1-.485-.059m2.22-11.567a2.211,2.211,0,1,1,2.441-1.955,2.186,2.186,0,0,1-2.191,1.955Zm-1.294-13.962h0a2.205,2.205,0,1,1,2.205,2.2,2.2,2.2,0,0,1-2.205-2.2m-.647-11.522a2.2,2.2,0,0,1,1.926-2.44,2.2,2.2,0,1,1,.5,4.38,1.345,1.345,0,0,1-.25.015,2.182,2.182,0,0,1-2.176-1.955m-1.956-11.361h0a2.2,2.2,0,1,1,2.645,1.646,2,2,0,0,1-.5.059,2.2,2.2,0,0,1-2.147-1.7m-3.249-11.067a2.25,2.25,0,1,1,2.088,1.455,2.209,2.209,0,0,1-2.088-1.455M584.15,69.741h0a2.206,2.206,0,1,1,2.955,1,2.1,2.1,0,0,1-.971.235,2.22,2.22,0,0,1-1.985-1.235M578.49,59.688h-.015a2.208,2.208,0,1,1,3.058.661,2.087,2.087,0,0,1-1.191.353,2.159,2.159,0,0,1-1.852-1.014m-6.778-9.333h0a2.2,2.2,0,0,1,3.411-2.792,2.214,2.214,0,0,1-.309,3.116,2.225,2.225,0,0,1-3.1-.323m-7.793-8.51a2.209,2.209,0,1,1,3.117-.044,2.181,2.181,0,0,1-1.573.661,2.218,2.218,0,0,1-1.544-.617m-8.7-7.584a2.205,2.205,0,1,1,3.1-.382,2.242,2.242,0,0,1-3.1.382m-9.5-6.555a2.2,2.2,0,1,1,1.147.323,2.153,2.153,0,0,1-1.147-.323m-10.189-5.423a2.2,2.2,0,1,1,.925.206,2.346,2.346,0,0,1-.925-.206m-10.733-4.233v.015a2.225,2.225,0,1,1,.691.1,1.848,1.848,0,0,1-.691-.118m-11.16-2.969a2.211,2.211,0,0,1-1.72-2.6,2.234,2.234,0,0,1,2.617-1.72h-.015a2.2,2.2,0,0,1-.441,4.365,2.245,2.245,0,0,1-.441-.044m-11.409-1.675a2.206,2.206,0,0,1,.382-4.394l.015.015a2.2,2.2,0,0,1-.206,4.394.839.839,0,0,1-.191-.015m-13.791-2.6a2.205,2.205,0,1,1,2.205,2.2,2.2,2.2,0,0,1-2.205-2.2m-11.806,0a2.205,2.205,0,1,1,2.205,2.2,2.2,2.2,0,0,1-2.205-2.2" transform="translate(305.161 406.05)" fill="#ccc"/>
  <path id="Path_3487" data-name="Path 3487" d="M586.988,217.931a2.205,2.205,0,1,0-2.205,2.2,2.211,2.211,0,0,0,2.205-2.2m11.807,0a2.205,2.205,0,1,0-2.205,2.2,2.211,2.211,0,0,0,2.205-2.2m-23.6-.22a2.207,2.207,0,1,0-2.4,2h.206a2.192,2.192,0,0,0,2.191-2m-11.7-1.484a2.207,2.207,0,0,0-4.323-.9,2.226,2.226,0,0,0,1.72,2.616,2.394,2.394,0,0,0,.456.044,2.2,2.2,0,0,0,2.147-1.764m-11.453-2.792a2.176,2.176,0,1,0-2.088,1.514,2.216,2.216,0,0,0,2.088-1.514m-11.057-4.1a2.2,2.2,0,1,0-2.926,1.073,2.074,2.074,0,0,0,.926.206,2.2,2.2,0,0,0,2-1.279m-10.513-5.32a2.207,2.207,0,1,0-3.029.735,2.293,2.293,0,0,0,1.147.323,2.217,2.217,0,0,0,1.882-1.058m-9.851-6.5a2.2,2.2,0,1,0-3.088.382,2.136,2.136,0,0,0,1.353.47,2.172,2.172,0,0,0,1.735-.852m-9.042-7.554a2.2,2.2,0,1,0-1.573.661,2.221,2.221,0,0,0,1.573-.661m-8.131-8.539a2.225,2.225,0,1,0-1.382.485,2.213,2.213,0,0,0,1.382-.485m-7.116-9.406a2.184,2.184,0,1,0-1.191.353,2.195,2.195,0,0,0,1.191-.353m-6.014-10.156a2.18,2.18,0,0,0,1.014-2.939v-.015a2.206,2.206,0,1,0-1.985,3.175,2.041,2.041,0,0,0,.97-.22M485.509,151.1a2.206,2.206,0,1,0-1.47-4.159,2.2,2.2,0,0,0,.735,4.277,2.482,2.482,0,0,0,.735-.118m-3.543-11.258a2.2,2.2,0,1,0-.485.059,1.828,1.828,0,0,0,.485-.059m-2.22-11.567a2.211,2.211,0,1,0-2.441-1.955,2.186,2.186,0,0,0,2.191,1.955Zm1.294-13.962h0a2.205,2.205,0,1,0-2.205,2.2,2.2,2.2,0,0,0,2.205-2.2m.647-11.522a2.2,2.2,0,0,0-1.926-2.44,2.2,2.2,0,1,0-.5,4.38,1.345,1.345,0,0,0,.25.015,2.182,2.182,0,0,0,2.176-1.955m1.956-11.361h0A2.2,2.2,0,1,0,481,93.079a2,2,0,0,0,.5.059,2.2,2.2,0,0,0,2.147-1.7m3.249-11.067a2.25,2.25,0,1,0-2.088,1.455,2.209,2.209,0,0,0,2.088-1.455m4.484-10.626h0a2.206,2.206,0,1,0-2.955,1,2.1,2.1,0,0,0,.971.235,2.22,2.22,0,0,0,1.985-1.235m5.661-10.053h.015a2.208,2.208,0,1,0-3.058.661,2.087,2.087,0,0,0,1.191.353,2.159,2.159,0,0,0,1.852-1.014m6.778-9.333h0a2.2,2.2,0,0,0-3.411-2.792,2.214,2.214,0,0,0,.309,3.116,2.225,2.225,0,0,0,3.1-.323m7.793-8.51a2.209,2.209,0,1,0-3.117-.044,2.181,2.181,0,0,0,1.573.661,2.218,2.218,0,0,0,1.544-.617m8.7-7.584a2.205,2.205,0,1,0-3.1-.382,2.242,2.242,0,0,0,3.1.382m9.5-6.555a2.2,2.2,0,1,0-1.147.323,2.153,2.153,0,0,0,1.147-.323M540,22.284a2.2,2.2,0,1,0-.925.206,2.346,2.346,0,0,0,.925-.206m10.733-4.233v.015a2.225,2.225,0,1,0-.691.1,1.848,1.848,0,0,0,.691-.118m11.16-2.969a2.211,2.211,0,0,0,1.72-2.6,2.234,2.234,0,0,0-2.617-1.72h.015a2.2,2.2,0,0,0,.441,4.365,2.245,2.245,0,0,0,.441-.044M573.3,13.407a2.206,2.206,0,0,0-.382-4.394l-.015.015a2.2,2.2,0,0,0,.206,4.394.839.839,0,0,0,.191-.015m13.791-2.6a2.205,2.205,0,1,0-2.205,2.2,2.2,2.2,0,0,0,2.205-2.2m11.806,0a2.205,2.205,0,1,0-2.205,2.2,2.2,2.2,0,0,0,2.205-2.2" transform="translate(-476.628 612.633)" fill="#ccc"/>
  <path id="Path_3432" data-name="Path 3432" d="M872.145,827.063H114.106c-49.067,0-88.984-53.534-88.984-119.339S65.04,588.39,114.106,588.39H802.624c27.6,0,50.06-30.118,50.06-67.14s-22.458-67.136-50.06-67.136H114.106c-49.067,0-88.984-53.535-88.984-119.336S65.04,215.438,114.106,215.438H802.624c27.6,0,50.06-30.118,50.06-67.136s-22.458-67.138-50.06-67.138H44.584v-52.2H802.624c49.065,0,88.983,53.532,88.983,119.336s-39.918,119.336-88.983,119.336H114.106c-27.6,0-50.061,30.118-50.061,67.138s22.457,67.136,50.061,67.136H802.624c49.065,0,88.983,53.535,88.983,119.336s-39.918,119.339-88.983,119.339H114.106c-27.6,0-50.061,30.118-50.061,67.136s22.457,67.14,50.061,67.14H872.145Z" transform="translate(-5.314 -11.72)" fill="#302b2c"/>
  <path id="Path_3433" data-name="Path 3433" d="M53.909,39.6h740.2c39.227,0,71.145,43.564,71.145,97.112s-31.918,97.112-71.145,97.112H105.592c-37.442,0-67.9,41.579-67.9,92.686s30.46,92.686,67.9,92.686H794.108c39.227,0,71.145,43.562,71.145,97.112s-31.918,97.112-71.145,97.112H105.592c-37.442,0-67.9,41.579-67.9,92.686s30.46,92.686,67.9,92.686h740.2" transform="translate(3.2 -4.523)" fill="none" stroke="#e0e0e0" stroke-miterlimit="10" stroke-width="1" stroke-dasharray="16 16"/>
</svg>
