<svg id="photo-camera" xmlns="http://www.w3.org/2000/svg" width="17.571" height="14.057" viewBox="0 0 17.571 14.057">
  <g id="Group_1181" data-name="Group 1181" transform="translate(0 0)">
    <g id="Group_1180" data-name="Group 1180" transform="translate(0 0)">
      <path id="Path_2980" data-name="Path 2980" d="M15.47,49.549H13.637l-1.012-1.528a2.1,2.1,0,0,0-1.738-.917h-4.2a2.1,2.1,0,0,0-1.738.917L3.934,49.549H2.1A2.1,2.1,0,0,0,0,51.65v7.41a2.1,2.1,0,0,0,2.1,2.1H15.47a2.1,2.1,0,0,0,2.1-2.1V51.65A2.1,2.1,0,0,0,15.47,49.549ZM8.786,59.442a4.727,4.727,0,1,1,4.737-4.717A4.736,4.736,0,0,1,8.786,59.442ZM15.2,52.509h-.84a.621.621,0,0,1,0-1.241h.764a.62.62,0,0,1,.649.592A.6.6,0,0,1,15.2,52.509Z" transform="translate(0 -47.104)" fill="#fff"/>
    </g>
  </g>
  <g id="Group_1183" data-name="Group 1183" transform="translate(6.15 4.985)">
    <g id="Group_1182" data-name="Group 1182" transform="translate(0 0)">
      <path id="Path_2981" data-name="Path 2981" d="M167.5,180.736a2.626,2.626,0,1,0,2.636,2.617A2.641,2.641,0,0,0,167.5,180.736Z" transform="translate(-164.864 -180.736)" fill="#fff"/>
    </g>
  </g>
</svg>
