<svg xmlns="http://www.w3.org/2000/svg" width="20" height="20" viewBox="0 0 20 20">
  <g id="cancel" transform="translate(0 -0.005)">
    <g id="Group_1193" data-name="Group 1193" transform="translate(0 0.005)">
      <path id="Path_3172" data-name="Path 3172" d="M17.074,2.931a10,10,0,1,0,0,14.149A10.016,10.016,0,0,0,17.074,2.931ZM14.126,12.953a.834.834,0,1,1-1.179,1.179L10,11.184,7.054,14.131a.834.834,0,1,1-1.179-1.179L8.821,10,5.874,7.057A.834.834,0,0,1,7.053,5.879L10,8.826l2.947-2.947a.834.834,0,1,1,1.179,1.179L11.179,10Z" transform="translate(0 -0.005)" fill="#999"/>
    </g>
  </g>
</svg>
