<svg xmlns="http://www.w3.org/2000/svg" width="20" height="20" viewBox="0 0 20 20">
  <g id="visualization" transform="translate(0.001 0)">
    <g id="Group_2000" data-name="Group 2000" transform="translate(-0.001 0)">
      <g id="Group_1999" data-name="Group 1999">
        <path id="Path_3402" data-name="Path 3402"
          d="M7.15,0H1.666A1.668,1.668,0,0,0,0,1.666V7.15A1.668,1.668,0,0,0,1.666,8.816H7.15A1.668,1.668,0,0,0,8.816,7.15V1.666A1.668,1.668,0,0,0,7.15,0Z"
          fill="#f6931f" />
        <path id="Path_3403" data-name="Path 3403"
          d="M287.815,0h-5.485a1.668,1.668,0,0,0-1.666,1.666V7.15a1.668,1.668,0,0,0,1.666,1.666h5.485a1.668,1.668,0,0,0,1.666-1.666V1.666A1.668,1.668,0,0,0,287.815,0Z"
          transform="translate(-269.481)" fill="#f6931f" />
        <path id="Path_3404" data-name="Path 3404"
          d="M7.15,280.665H1.666A1.668,1.668,0,0,0,0,282.331v5.485a1.668,1.668,0,0,0,1.666,1.666H7.15a1.668,1.668,0,0,0,1.666-1.666v-5.485A1.668,1.668,0,0,0,7.15,280.665Z"
          transform="translate(0 -269.481)" fill="#f6931f" />
        <path id="Path_3405" data-name="Path 3405"
          d="M287.815,280.665h-5.485a1.668,1.668,0,0,0-1.666,1.666v5.485a1.668,1.668,0,0,0,1.666,1.666h5.485a1.668,1.668,0,0,0,1.666-1.666v-5.485A1.668,1.668,0,0,0,287.815,280.665Z"
          transform="translate(-269.481 -269.481)" fill="#f6931f" />
      </g>
    </g>
  </g>
</svg>