<svg xmlns="http://www.w3.org/2000/svg" width="26.756" height="23.393" viewBox="0 0 26.756 23.393">
  <g id="Collections" transform="translate(0.056 -3)">
    <path id="Path_3279" data-name="Path 3279" d="M26.7,15.805a.629.629,0,0,0-.379-.529c-.122-.028-.612-.028-2.962-.028,0-9.058.067-8.513-.161-8.747C19.7,3,19.79,3,19.461,3H9.44a.557.557,0,0,0-.557.557V4.67H6.1a.557.557,0,0,0-.557.557V6.9H.532a.557.557,0,0,0-.557.557c0,19.82-.189,18.685.362,18.891.15.056,22.471.072,22.66,0a.557.557,0,0,0,.29-.262C23.359,26,26.7,15.972,26.7,15.805ZM22.4,25.27H1.306l2.967-8.908h21.1ZM20.018,4.9,21.46,6.341H20.018ZM10,4.114H18.9V6.9a.557.557,0,0,0,.557.557h2.784v7.795H10ZM6.656,5.784H8.883v9.465H6.656ZM5.543,8.011v7.238c-1.737,0-2.038-.1-2.2.379L1.089,22.4V8.011Z" fill="#000"/>
    <path id="Path_3280" data-name="Path 3280" d="M20.557,14.114h5.568a.557.557,0,1,0,0-1.114H20.557a.557.557,0,0,0,0,1.114Z" transform="translate(-8.89 -4.432)" fill="#000"/>
    <path id="Path_3281" data-name="Path 3281" d="M20.557,18.114H23.9A.557.557,0,1,0,23.9,17H20.557a.557.557,0,1,0,0,1.114Z" transform="translate(-8.89 -6.205)" fill="#000"/>
  </g>
</svg>
