<svg xmlns="http://www.w3.org/2000/svg" width="34.949" height="35" viewBox="0 0 34.949 35">
  <g id="phone-call" transform="translate(-0.344 0)">
    <g id="Group_1139" data-name="Group 1139" transform="translate(0.344 0)">
      <path id="Path_3120" data-name="Path 3120" d="M27.98,47.063a3.442,3.442,0,0,0-2.5-1.145,3.56,3.56,0,0,0-2.526,1.138l-2.334,2.327c-.192-.1-.384-.2-.569-.3-.266-.133-.517-.259-.731-.392a25.371,25.371,0,0,1-6.079-5.54,14.968,14.968,0,0,1-1.994-3.147c.606-.554,1.167-1.13,1.714-1.684.207-.207.414-.421.621-.628a3.389,3.389,0,0,0,0-5.112l-2.017-2.017c-.229-.229-.465-.465-.687-.7-.443-.458-.909-.931-1.389-1.374a3.5,3.5,0,0,0-2.475-1.086A3.618,3.618,0,0,0,4.5,28.492l-.015.015L1.978,31.04a5.4,5.4,0,0,0-1.6,3.435,12.949,12.949,0,0,0,.946,5.481,31.806,31.806,0,0,0,5.651,9.426,34.762,34.762,0,0,0,11.575,9.064,18.035,18.035,0,0,0,6.5,1.921c.155.007.318.015.465.015a5.566,5.566,0,0,0,4.262-1.832c.007-.015.022-.022.03-.037A16.793,16.793,0,0,1,31.1,57.176c.318-.3.643-.621.96-.953a3.685,3.685,0,0,0,1.115-2.556,3.55,3.55,0,0,0-1.138-2.534Zm2.645,7.778c-.007,0-.007.007,0,0-.288.31-.584.591-.9.9A19.426,19.426,0,0,0,28.3,57.22a3.561,3.561,0,0,1-2.778,1.175c-.111,0-.229,0-.34-.007a16.022,16.022,0,0,1-5.762-1.729,32.814,32.814,0,0,1-10.9-8.539A29.99,29.99,0,0,1,3.2,39.262a10.547,10.547,0,0,1-.827-4.624,3.391,3.391,0,0,1,1.019-2.194l2.519-2.519A1.679,1.679,0,0,1,7.031,29.4a1.58,1.58,0,0,1,1.079.517l.022.022c.451.421.879.857,1.33,1.322.229.236.465.473.7.717L12.179,34a1.41,1.41,0,0,1,0,2.29c-.214.214-.421.428-.635.635-.621.635-1.211,1.226-1.854,1.8-.015.015-.03.022-.037.037a1.507,1.507,0,0,0-.384,1.677l.022.066A16.19,16.19,0,0,0,11.677,44.4l.007.007a27.113,27.113,0,0,0,6.56,5.969,10.085,10.085,0,0,0,.909.495c.266.133.517.259.731.392.03.015.059.037.089.052a1.6,1.6,0,0,0,.731.185,1.579,1.579,0,0,0,1.123-.51l2.526-2.526a1.671,1.671,0,0,1,1.115-.554,1.5,1.5,0,0,1,1.064.539l.015.015,4.07,4.07A1.461,1.461,0,0,1,30.625,54.841Z" transform="translate(-0.344 -25.382)" fill="#999"/>
      <path id="Path_3121" data-name="Path 3121" d="M245.765,87.9a9.507,9.507,0,0,1,7.742,7.742.991.991,0,0,0,.982.827,1.319,1.319,0,0,0,.17-.015,1,1,0,0,0,.82-1.152,11.5,11.5,0,0,0-9.367-9.367,1,1,0,0,0-1.152.813A.986.986,0,0,0,245.765,87.9Z" transform="translate(-226.875 -79.578)" fill="#999"/>
      <path id="Path_3122" data-name="Path 3122" d="M265.358,15.439A18.929,18.929,0,0,0,249.934.015a1,1,0,1,0-.325,1.965,16.907,16.907,0,0,1,13.784,13.784.991.991,0,0,0,.982.827,1.319,1.319,0,0,0,.17-.015A.979.979,0,0,0,265.358,15.439Z" transform="translate(-230.424 0)" fill="#999"/>
    </g>
  </g>
</svg>
