<svg id="maps-and-location" xmlns="http://www.w3.org/2000/svg" width="33.604" height="35.537" viewBox="0 0 33.604 35.537">
  <path id="Path_3125" data-name="Path 3125" d="M33.346,15a.7.7,0,0,0-.582-.139L22.171,17.131l-1.188-.254L24.118,10.6l.015-.031a7.537,7.537,0,1,0-13.806,0l.014.031,2.237,4.481-1-.214-.028,0-.04-.007-.037,0-.04,0-.038,0-.039,0-.039.006-.029,0L.549,17.162A.694.694,0,0,0,0,17.841v5.725a.694.694,0,0,0,1.388,0V18.4l9.35-2V31.985l-9.35,2V29.118a.694.694,0,0,0-1.388,0v5.725a.694.694,0,0,0,.839.679l10.593-2.266,10.593,2.266.011,0,.046.007.021,0c.022,0,.044,0,.067,0s.044,0,.066,0l.021,0,.046-.007.012,0,10.738-2.3a.694.694,0,0,0,.549-.679V26.821a.694.694,0,1,0-1.388,0v5.163l-9.35,2V18.4l9.35-2v4.867a.694.694,0,1,0,1.388,0V15.543A.7.7,0,0,0,33.346,15ZM11.08,7.537A6.149,6.149,0,1,1,22.868,9.993L17.229,21.287,11.591,9.993A6.1,6.1,0,0,1,11.08,7.537ZM12.127,16.4l1.245.266,3.237,6.483a.694.694,0,0,0,1.242,0l2.492-4.991,1.134.243V33.985l-9.35-2V16.4Zm0,0" fill="#999" fill-rule="evenodd"/>
  <path id="Path_3126" data-name="Path 3126" d="M192.852,48.752a4.463,4.463,0,1,0-4.463,4.463A4.468,4.468,0,0,0,192.852,48.752Zm-7.538,0a3.075,3.075,0,1,1,3.075,3.075A3.079,3.079,0,0,1,185.314,48.752Zm0,0" transform="translate(-171.16 -41.215)" fill="#999" fill-rule="evenodd"/>
  <path id="Path_3127" data-name="Path 3127" d="M.694,370.908A.694.694,0,1,0,0,370.214.7.7,0,0,0,.694,370.908Zm0,0" transform="translate(0 -343.871)" fill="#999" fill-rule="evenodd"/>
  <path id="Path_3128" data-name="Path 3128" d="M464.831,336.418a.694.694,0,1,0,.694.694A.7.7,0,0,0,464.831,336.418Zm0,0" transform="translate(-431.921 -313.068)" fill="#999" fill-rule="evenodd"/>
</svg>
