<svg xmlns="http://www.w3.org/2000/svg" width="18" height="23" viewBox="0 0 18 23">
  <g id="Group_1430" data-name="Group 1430" transform="translate(-1815.098 -346.589)">
    <g id="trash" transform="translate(1815.098 346.589)">
      <path id="Path_3036" data-name="Path 3036" d="M64.269,2.875H60.462V2.156A2.12,2.12,0,0,0,58.385,0H55.615a2.12,2.12,0,0,0-2.077,2.156v.719H49.731A1.767,1.767,0,0,0,48,4.672V7.188a.706.706,0,0,0,.692.719h.378l.6,13.04A2.111,2.111,0,0,0,51.743,23H62.257a2.111,2.111,0,0,0,2.075-2.054l.6-13.04h.378A.706.706,0,0,0,66,7.188V4.672A1.767,1.767,0,0,0,64.269,2.875Zm-9.346-.719a.707.707,0,0,1,.692-.719h2.769a.707.707,0,0,1,.692.719v.719H54.923ZM49.385,4.672a.353.353,0,0,1,.346-.359H64.269a.353.353,0,0,1,.346.359v1.8H49.385ZM62.948,20.878a.7.7,0,0,1-.691.685H51.743a.7.7,0,0,1-.691-.685L50.457,7.906H63.543Z" transform="translate(-48)" fill="#999"/>
      <path id="Path_3037" data-name="Path 3037" d="M240.714,218.714a.714.714,0,0,0,.714-.714v-9.285a.714.714,0,0,0-1.428,0V218A.714.714,0,0,0,240.714,218.714Z" transform="translate(-231.714 -198.57)" fill="#999"/>
      <path id="Path_3038" data-name="Path 3038" d="M320.714,218.714a.714.714,0,0,0,.714-.714v-9.285a.714.714,0,1,0-1.428,0V218A.714.714,0,0,0,320.714,218.714Z" transform="translate(-308.262 -198.57)" fill="#999"/>
      <path id="Path_3039" data-name="Path 3039" d="M160.714,218.714a.714.714,0,0,0,.714-.714v-9.285a.714.714,0,0,0-1.428,0V218A.714.714,0,0,0,160.714,218.714Z" transform="translate(-155.167 -198.57)" fill="#999"/>
    </g>
  </g>
</svg>
