<svg xmlns="http://www.w3.org/2000/svg" width="17.999" height="18" viewBox="0 0 17.999 18">
  <g id="Group_1193" data-name="Group 1193" transform="translate(0.999 1)">
    <g id="Path_3172" data-name="Path 3172" transform="translate(0 -0.005)" fill="#fff">
      <path d="M 8.000330924987793 16.50441360473633 C 5.72636079788208 16.50441360473633 3.590730905532837 15.62149429321289 1.98685097694397 14.01829433441162 C -1.328199028968811 10.70250415802002 -1.328199028968811 5.307514190673828 1.986740946769714 1.991844296455383 C 3.590930938720703 0.3879943192005157 5.726440906524658 -0.4952456951141357 7.999980926513672 -0.4952456951141357 C 10.27352046966553 -0.4952456951141357 12.4090404510498 0.3879943192005157 14.01316070556641 1.991764307022095 C 15.61699104309082 3.595604419708252 16.50025177001953 5.731134414672852 16.50025177001953 8.005023956298828 C 16.50025177001953 10.27890396118164 15.61699104309082 12.4144344329834 14.01319122314453 14.01822471618652 C 12.40921115875244 15.62149429321289 10.27383136749268 16.50441360473633 8.000330924987793 16.50441360473633 Z M 8.000301361083984 8.240553855895996 L 8.353911399841309 8.594264030456543 L 10.71167087554932 10.95271396636963 C 10.75423049926758 10.99528408050537 10.80384063720703 11.00164413452148 10.82962131500244 11.00164413452148 C 10.85540103912354 11.00164413452148 10.90502071380615 10.99528408050537 10.94764137268066 10.95266437530518 C 11.0127010345459 10.88759422302246 11.0127010345459 10.78173446655273 10.94764137268066 10.71666431427002 L 8.589760780334473 8.358174324035645 L 8.236300468444824 8.004613876342773 L 8.589811325073242 7.651114463806152 L 10.94758129119873 5.293354511260986 C 10.99036121368408 5.250564098358154 10.9967212677002 5.200834274291992 10.99671077728271 5.174994468688965 C 10.99669075012207 5.149354457855225 10.99034118652344 5.100014209747314 10.94802093505859 5.057794094085693 C 10.90696048736572 5.016744136810303 10.86099052429199 5.008224487304688 10.82958126068115 5.008224487304688 C 10.798171043396 5.008224487304688 10.75220108032227 5.016744136810303 10.71158123016357 5.05735445022583 L 8.353811264038086 7.415114402770996 L 8.000261306762695 7.768674373626709 L 7.646710872650146 7.415114402770996 L 5.28895092010498 5.05735445022583 C 5.246191024780273 5.014604091644287 5.196520805358887 5.008224487304688 5.170711040496826 5.008224487304688 C 5.145040988922119 5.008224487304688 5.095670700073242 5.014544486999512 5.05341100692749 5.056914329528809 C 5.010190963745117 5.100024223327637 5.003840923309326 5.149354457855225 5.003830909729004 5.174994468688965 C 5.003810882568359 5.200834274291992 5.010170936584473 5.250554084777832 5.052960872650146 5.293354511260986 L 7.410720825195312 7.651114463806152 L 7.764230728149414 8.004613876342773 L 7.410770893096924 8.358163833618164 L 5.053660869598389 10.71592426300049 C 5.010840892791748 10.75864410400391 5.004490852355957 10.80797386169434 5.004480838775635 10.83361434936523 C 5.00446081161499 10.85945415496826 5.010820865631104 10.9091739654541 5.053610801696777 10.9519739151001 C 5.096240997314453 10.99459457397461 5.145851135253906 11.00096416473389 5.171630859375 11.00096416473389 C 5.197310924530029 11.00096416473389 5.24691104888916 10.99448394775391 5.290521144866943 10.95109462738037 L 7.646700859069824 8.594264030456543 L 8.000301361083984 8.240553855895996 Z" stroke="none"/>
      <path d="M 7.999981880187988 0.004754066467285156 C 5.950520515441895 0.004754066467285156 3.901061058044434 0.7849540710449219 2.340331077575684 2.345354080200195 C -0.7797889709472656 5.466164588928223 -0.7797889709472656 10.54385375976562 2.340331077575684 13.66466426849365 C 5.461791038513184 16.78480529785156 10.53818035125732 16.78474426269531 13.65964126586914 13.66466426849365 C 16.78045082092285 10.54388427734375 16.78045082092285 5.466164588928223 13.65964126586914 2.345354080200195 C 12.09890556335449 0.7849540710449219 10.04944324493408 0.004754066467285156 7.999981880187988 0.004754066467285156 M 8.000261306762695 7.061564445495605 L 10.35803031921387 4.703804016113281 C 10.61881065368652 4.443023681640625 11.04035186767578 4.443023681640625 11.3011302947998 4.703804016113281 C 11.5619010925293 4.963924407958984 11.5619010925293 5.386124610900879 11.3011302947998 5.646903991699219 L 8.943361282348633 8.004664421081543 L 11.30119132995605 10.36311435699463 C 11.56197071075439 10.62389373779297 11.56197071075439 11.04543495178223 11.30119132995605 11.30621433258057 C 11.04110145568848 11.56630325317383 10.61821174621582 11.56636428833008 10.35806083679199 11.30621433258057 L 8.000301361083984 8.94776439666748 L 5.643191337585449 11.3055248260498 C 5.381244659423828 11.56614875793457 4.959678649902344 11.56514167785645 4.700060844421387 11.3055248260498 C 4.43928050994873 11.04474449157715 4.43928050994873 10.62254428863525 4.700060844421387 10.36242485046387 L 7.057170867919922 8.004664421081543 L 4.699411392211914 5.646903991699219 C 4.438631057739258 5.386124610900879 4.438631057739258 4.963924407958984 4.699411392211914 4.703804016113281 C 4.959528923034668 4.443023681640625 5.381729125976562 4.443021774291992 5.642500877380371 4.703804016113281 L 8.000261306762695 7.061564445495605 M 7.999980926513672 -0.9952459335327148 C 10.40705108642578 -0.9952459335327148 12.66812133789062 -0.06001567840576172 14.36667060852051 1.638174057006836 C 16.06499099731445 3.336483955383301 17.00025177001953 5.59758472442627 17.00025177001953 8.005023956298828 C 17.00025177001953 10.4124641418457 16.06498146057129 12.67355442047119 14.36674118041992 14.37177467346191 C 12.66825103759766 16.06951522827148 10.40734100341797 17.00441360473633 8.000330924987793 17.00441360473633 C 5.592841148376465 17.00441360473633 3.331681251525879 16.06951522827148 1.633371353149414 14.37192440032959 C -1.876678466796875 10.86109447479248 -1.876678466796875 5.148923873901367 1.633151054382324 1.638324737548828 C 3.331840515136719 -0.06001567840576172 5.592910766601562 -0.9952459335327148 7.999980926513672 -0.9952459335327148 Z" stroke="none" fill="#000"/>
    </g>
  </g>
</svg>
