<svg id="email" xmlns="http://www.w3.org/2000/svg" width="11" height="9" viewBox="0 0 11 9">
  <path id="Path_3340" data-name="Path 3340" d="M163.44,48.849c0-.014.009-.029.008-.043l-3.52,3.728,3.516,3.609c0-.026,0-.052,0-.078Z" transform="translate(-152.449 -47.958)" fill="#555"/>
  <path id="Path_3341" data-name="Path 3341" d="M17.586,126.9l-1.364,1.489a.327.327,0,0,1-.491,0l-1.361-1.438-3.36,3.673a.7.7,0,0,0,.261.059h9.405a.706.706,0,0,0,.375-.117Z" transform="translate(-10.458 -121.688)" fill="#555"/>
  <path id="Path_3342" data-name="Path 3342" d="M11.329,38.787l5.107-5.572a.709.709,0,0,0-.394-.13H6.624a.725.725,0,0,0-.494.209Z" transform="translate(-5.823 -33.085)" fill="#555"/>
  <path id="Path_3343" data-name="Path 3343" d="M0,52.1v7.079a.98.98,0,0,0,.035.234l3.495-3.7Z" transform="translate(0 -51.074)" fill="#555"/>
</svg>
