<svg xmlns="http://www.w3.org/2000/svg" width="28" height="22" viewBox="0 0 28 22">
  <g id="layer1" transform="translate(-2 -5)">
    <path id="path1255" d="M28.984,19.986A1,1,0,0,0,28,21v4H24a1,1,0,1,0,0,2h5a1,1,0,0,0,1-1V21a1,1,0,0,0-1.016-1.014Z" fill="#000"/>
    <path id="path1257" d="M24,5a1,1,0,1,0,0,2h4v4a1,1,0,1,0,2,0V6a1,1,0,0,0-1-1Z" fill="#000"/>
    <path id="path1259" d="M3,5A1,1,0,0,0,2,6v5a1,1,0,1,0,2,0V7H8A1,1,0,1,0,8,5Z" fill="#000"/>
    <path id="path1261" d="M2.984,19.986A1,1,0,0,0,2,21v5a1,1,0,0,0,1,1H8a1,1,0,1,0,0-2H4V21a1,1,0,0,0-1.016-1.014Z" fill="#000"/>
    <path id="path1263" d="M8,10a1,1,0,0,0-1,1V21a1,1,0,0,0,1,1H24a1,1,0,0,0,1-1V11a1,1,0,0,0-1-1Zm1,2H23v8H9Z" fill="#000"/>
  </g>
</svg>
