<svg id="export" xmlns="http://www.w3.org/2000/svg" width="14" height="14" viewBox="0 0 14 14">
  <path id="Path_3391" data-name="Path 3391"
    d="M157.171,19.8a.718.718,0,0,1-1.016-1.016l2.575-2.575a.718.718,0,0,1,1.016,0l2.575,2.575a.718.718,0,0,1-1.016,1.016l-1.349-1.349v7.739a.718.718,0,0,1-1.436,0V18.452Z"
    transform="translate(-152.238 -16)" fill="#fff" fill-rule="evenodd" />
  <path id="Path_3392" data-name="Path 3392"
    d="M19.26,17.273a.636.636,0,0,0,0-1.273H16.636a.636.636,0,0,0-.636.636V29.364a.636.636,0,0,0,.636.636H29.364A.636.636,0,0,0,30,29.364V16.636A.636.636,0,0,0,29.364,16H26.74a.636.636,0,1,0,0,1.273h1.987V28.727H17.273V17.273Z"
    transform="translate(-16 -16)" fill="#fff" fill-rule="evenodd" />
</svg>