<svg xmlns="http://www.w3.org/2000/svg" width="60" height="53" viewBox="0 0 60 53">
  <g id="Collections" transform="translate(0.056 -3)">
    <path id="Path_3279" data-name="Path 3279" d="M59.944,32.012a1.425,1.425,0,0,0-.849-1.2c-.275-.063-1.373-.063-6.642-.063,0-20.523.15-19.287-.362-19.817C44.237,3,44.449,3,43.713,3H21.239a1.255,1.255,0,0,0-1.249,1.261V6.784H13.748A1.255,1.255,0,0,0,12.5,8.046V11.83H1.263A1.255,1.255,0,0,0,.014,13.091C.014,58-.41,55.424.826,55.891c.337.126,50.391.164,50.815,0a1.253,1.253,0,0,0,.649-.593C52.452,55.109,59.944,32.391,59.944,32.012ZM50.3,53.456H3L9.653,33.274H56.96ZM44.961,7.3l3.234,3.267H44.961ZM22.488,5.523H42.464V11.83a1.255,1.255,0,0,0,1.249,1.261h6.243v17.66H22.488ZM15,9.307h4.994V30.751H15Zm-2.5,5.046v16.4c-3.9,0-4.57-.227-4.932.858L2.511,46.947V14.353Z" transform="translate(0)" fill="#ccc"/>
    <path id="Path_3280" data-name="Path 3280" d="M21.294,15.587H34.23a1.294,1.294,0,1,0,0-2.587H21.294a1.294,1.294,0,1,0,0,2.587Z" transform="translate(4.684 2.598)" fill="#ccc"/>
    <path id="Path_3281" data-name="Path 3281" d="M21.294,19.587h7.762a1.294,1.294,0,1,0,0-2.587H21.294a1.294,1.294,0,1,0,0,2.587Z" transform="translate(4.804 3.637)" fill="#ccc"/>
  </g>
</svg>
