<svg xmlns="http://www.w3.org/2000/svg" width="25" height="24.999" viewBox="0 0 25 24.999">
  <g id="full-size" transform="translate(0 -0.002)">
    <path id="Path_3314" data-name="Path 3314" d="M.905,7.857a.905.905,0,0,0,.905-.905V3.093l5.83,5.829a.905.905,0,0,0,1.28-1.28L3.09,1.812h3.86a.905.905,0,1,0,0-1.81H.905A.905.905,0,0,0,0,.907V6.952A.905.905,0,0,0,.905,7.857Z" transform="translate(0 0)" fill="#fff"/>
    <path id="Path_3315" data-name="Path 3315" d="M146.214,139.262a.905.905,0,0,0-.905.905v3.86l-6.01-6.01a.905.905,0,1,0-1.28,1.28l6.009,6.009h-3.859a.905.905,0,0,0,0,1.81h6.045a.905.905,0,0,0,.905-.905v-6.045A.905.905,0,0,0,146.214,139.262Z" transform="translate(-122.12 -122.116)" fill="#fff"/>
    <path id="Path_3316" data-name="Path 3316" d="M7.824,138.017l-6.009,6.009v-3.86a.905.905,0,1,0-1.81,0v6.045a.905.905,0,0,0,.905.905H6.955a.905.905,0,0,0,0-1.81H3.1L9.1,139.3a.905.905,0,1,0-1.28-1.28Z" transform="translate(-0.004 -122.116)" fill="#fff"/>
    <path id="Path_3317" data-name="Path 3317" d="M147.528,0h-6.045a.905.905,0,1,0,0,1.81h3.86l-5.829,5.83a.905.905,0,0,0,1.28,1.28l5.829-5.83v3.86a.905.905,0,0,0,1.81,0V.907A.905.905,0,0,0,147.528,0Z" transform="translate(-123.434 0)" fill="#fff"/>
  </g>
</svg>
