<svg xmlns="http://www.w3.org/2000/svg" width="25.533" height="23.938" viewBox="0 0 25.533 23.938">
  <g id="history" transform="translate(0.003 -2)">
    <path id="Path_3309" data-name="Path 3309" d="M31.283,21.621l4.787,3.59a.8.8,0,1,0,.957-1.277L32.6,20.58V13.8a.8.8,0,0,0-1.6,0v7.181A.825.825,0,0,0,31.283,21.621Z" transform="translate(-18.635 -6.612)" fill="#000"/>
    <path id="Path_3310" data-name="Path 3310" d="M13.562,2a11.968,11.968,0,0,0-11.8,9.973l-.3-.451a.8.8,0,1,0-1.324.894l1.6,2.394a.8.8,0,0,0,.582.355h.08a.8.8,0,0,0,.562-.235l1.995-1.995A.8.8,0,0,0,3.82,11.806l-.495.5A10.372,10.372,0,1,1,13.562,24.34a9.818,9.818,0,0,1-8.126-4.053.8.8,0,1,0-1.3.926,11.4,11.4,0,0,0,9.427,4.723A11.968,11.968,0,1,0,13.562,2Z" fill="#000"/>
  </g>
</svg>
