<svg id="info" xmlns="http://www.w3.org/2000/svg" width="24" height="24" viewBox="0 0 24 24">
  <g id="Group_1681" data-name="Group 1681">
    <g id="Group_1680" data-name="Group 1680">
      <path id="Path_3328" data-name="Path 3328" d="M25.248,29.513a1.181,1.181,0,0,1-.712-.16.74.74,0,0,1-.2-.607,3.155,3.155,0,0,1,.066-.552,6.08,6.08,0,0,1,.144-.618l.652-2.242a3.394,3.394,0,0,0,.133-.679c0-.248.033-.42.033-.519a1.452,1.452,0,0,0-.513-1.154,2.159,2.159,0,0,0-1.458-.442,3.783,3.783,0,0,0-1.1.182q-.585.182-1.231.436l-.188.729c.127-.044.282-.094.458-.149a1.878,1.878,0,0,1,.519-.077,1.06,1.06,0,0,1,.7.171.8.8,0,0,1,.182.6,2.619,2.619,0,0,1-.061.552q-.058.29-.149.613l-.657,2.253a6.436,6.436,0,0,0-.127.635,3.944,3.944,0,0,0-.039.552,1.441,1.441,0,0,0,.552,1.143,2.209,2.209,0,0,0,1.48.453,3.406,3.406,0,0,0,1.1-.16q.469-.16,1.253-.458l.177-.7a3.05,3.05,0,0,1-.436.144A2.1,2.1,0,0,1,25.248,29.513Z" transform="translate(-11.623 -12.58)" fill="#e82424"/>
      <path id="Path_3329" data-name="Path 3329" d="M28.882,13.913a1.679,1.679,0,0,0-2.209,0,1.32,1.32,0,0,0,0,2,1.656,1.656,0,0,0,2.209,0,1.326,1.326,0,0,0,0-2Z" transform="translate(-14.585 -7.509)" fill="#e82424"/>
      <path id="Path_3330" data-name="Path 3330" d="M12,0A12,12,0,1,0,24,12,12,12,0,0,0,12,0Zm0,22.909A10.909,10.909,0,1,1,22.909,12,10.909,10.909,0,0,1,12,22.909Z" fill="#e82424"/>
    </g>
  </g>
</svg>
