<svg id="pin" xmlns="http://www.w3.org/2000/svg" width="10" height="14" viewBox="0 0 10 14">
  <g id="Group_1727" data-name="Group 1727" transform="translate(0)">
    <path id="Path_3344" data-name="Path 3344" d="M90.333,0a4.848,4.848,0,0,0-5,4.667,4.431,4.431,0,0,0,.6,2.218L90.06,13.85a.324.324,0,0,0,.547,0l4.128-6.968a4.43,4.43,0,0,0,.6-2.215A4.848,4.848,0,0,0,90.333,0Zm0,7a2.424,2.424,0,0,1-2.5-2.333,2.506,2.506,0,0,1,5,0A2.424,2.424,0,0,1,90.333,7Z" transform="translate(-85.333 0)" fill="#555"/>
  </g>
</svg>
