<svg xmlns="http://www.w3.org/2000/svg" width="18.527" height="17.369" viewBox="0 0 18.527 17.369">
  <g id="history-2" transform="translate(0.003 -2)">
    <path id="Path_3357" data-name="Path 3357" d="M31.206,19.255l3.474,2.605a.579.579,0,0,0,.695-.926L32.158,18.5V13.579a.579.579,0,0,0-1.158,0v5.21A.6.6,0,0,0,31.206,19.255Z" transform="translate(-22.029 -7.816)" fill="#555"/>
    <path id="Path_3358" data-name="Path 3358" d="M9.84,2A8.684,8.684,0,0,0,1.277,9.237l-.22-.327A.58.58,0,1,0,.1,9.558l1.158,1.737a.579.579,0,0,0,.423.258h.058a.578.578,0,0,0,.408-.171L3.59,9.934a.579.579,0,0,0-.819-.819l-.359.362A7.526,7.526,0,1,1,9.84,18.21a7.124,7.124,0,0,1-5.9-2.941A.579.579,0,0,0,3,15.941a8.27,8.27,0,0,0,6.84,3.427A8.684,8.684,0,0,0,9.84,2Z" transform="translate(0)" fill="#555"/>
  </g>
</svg>
