<svg xmlns="http://www.w3.org/2000/svg" xmlns:xlink="http://www.w3.org/1999/xlink" width="594" height="162" viewBox="0 0 594 162">
  <defs>
    <clipPath id="clip-path">
      <rect id="Rectangle_1803" data-name="Rectangle 1803" width="594" height="162" transform="translate(0 0)" fill="#dedede" stroke="rgba(0,0,0,0)" stroke-width="1"/>
    </clipPath>
  </defs>
  <g id="Group_1735" data-name="Group 1735" transform="translate(536.959 244.714)">
    <g id="Mask_Group_1317" data-name="Mask Group 1317" transform="translate(-536.959 -244.714)" clip-path="url(#clip-path)">
      <path id="Path_3254" data-name="Path 3254" d="M47.761.617A83.52,83.52,0,0,0,27.224,3.173a72.252,72.252,0,0,1,70.014,55.02c.092.373.178.749.262,1.125a12.2,12.2,0,0,1-6.265,12.923,12.428,12.428,0,0,1-16.77-4.915A30.449,30.449,0,0,0,18.2,74.85a29.533,29.533,0,0,0-.008,13.536,30.45,30.45,0,0,0,56.268,7.557,12.433,12.433,0,0,1,16.77-4.925,12.21,12.21,0,0,1,6.28,12.852q-.164.738-.344,1.473a72.257,72.257,0,0,1-70.08,54.723,83.509,83.509,0,0,0,20.673,2.594c45.114,0,81.815-36.345,81.815-81.02S92.876.617,47.761.617" transform="translate(27.391 -0.267)" fill="#dedede" stroke="rgba(0,0,0,0)" stroke-width="1"/>
      <path id="Path_3255" data-name="Path 3255" d="M124.12,46.237a12.326,12.326,0,0,1-.966,2.281,54.819,54.819,0,0,1-4.581,6.986h.107A55.31,55.31,0,0,1,74.713,77.177,54.927,54.927,0,0,1,25.255,46.764,13.38,13.38,0,0,0,7.41,40.8,13.133,13.133,0,0,0,1.387,58.474,81.15,81.15,0,0,0,54.04,100.962a72.264,72.264,0,0,0,70.08-54.725" transform="translate(0.44 58.84)" fill="#dedede" stroke="rgba(0,0,0,0)" stroke-width="1"/>
      <path id="Path_3256" data-name="Path 3256" d="M1.388,44.126A13.129,13.129,0,0,0,7.406,61.8,13.381,13.381,0,0,0,25.254,55.84a55.455,55.455,0,0,1,84.33-18.057h-.117a54.734,54.734,0,0,1,13.684,16.309,12.148,12.148,0,0,1,1.037,2.558A72.247,72.247,0,0,0,54.174,1.63a81.135,81.135,0,0,0-52.785,42.5" transform="translate(0.441 1.276)" fill="#dedede" stroke="rgba(0,0,0,0)" stroke-width="1"/>
      <path id="Path_3258" data-name="Path 3258" d="M181.065,120.579A12.64,12.64,0,0,1,168.364,108V67.121c0-27.988-7.638-32.906-20.242-32.906-8.02,0-14.706,3.4-18.716,9.646-3.246,5.107-4.2,11.157-4.2,25.152V108a12.7,12.7,0,0,1-25.4,0V23.624A10.072,10.072,0,0,1,109.927,13.6h3.246A10.072,10.072,0,0,1,123.3,23.624c9.356-8.886,17.761-12.482,29.792-12.482,14.7,0,26.163,5.3,33.037,15.131,5.727,8.132,7.641,17.21,7.641,35.931V108a12.64,12.64,0,0,1-12.7,12.577" transform="translate(154.92 15.763)" fill="#dedede" stroke="rgba(0,0,0,0)" stroke-width="1"/>
      <path id="Path_3259" data-name="Path 3259" d="M182.406,51.248v73.726a12.7,12.7,0,0,1-25.4,0V51.248H149.45a11.441,11.441,0,1,1,0-22.882h7.557V12.577a12.7,12.7,0,0,1,25.4,0V28.367h7.073a11.441,11.441,0,1,1,0,22.882Z" transform="translate(213.88 -1.207)" fill="#dedede" stroke="rgba(0,0,0,0)" stroke-width="1"/>
      <path id="Path_3260" data-name="Path 3260" d="M215.963,11.143h-3.585c-10.884,0-16.232.817-22.918,10.463A10.264,10.264,0,0,0,179.15,11.393h-2.673a10.264,10.264,0,0,0-10.313,10.213V108a12.639,12.639,0,0,0,12.7,12.577h0A12.639,12.639,0,0,0,191.563,108V60.126c0-16.266,9.124-24.4,24.4-24.776v.023a11.756,11.756,0,0,0,11.812-11.7V22.84a11.754,11.754,0,0,0-11.812-11.7" transform="translate(257.631 15.764)" fill="#dedede" stroke="rgba(0,0,0,0)" stroke-width="1"/>
      <path id="Path_3261" data-name="Path 3261" d="M281.16,27.133a51.9,51.9,0,0,1,15.98,38.28v45a9.1,9.1,0,0,1-9.091,9.1,8.587,8.587,0,0,1-6.41-2.652,8.727,8.727,0,0,1-2.678-6.444v-4.738a54.917,54.917,0,0,1-75.107-2.084,51.771,51.771,0,0,1-15.977-38.181,51.893,51.893,0,0,1,15.977-38.28,55.125,55.125,0,0,1,77.306,0m-38.653,5.311a32.17,32.17,0,0,0-23.5,9.6,31.683,31.683,0,0,0-9.786,23.361,31.586,31.586,0,0,0,9.786,23.275,33.562,33.562,0,0,0,47,0,31.593,31.593,0,0,0,9.784-23.275,31.69,31.69,0,0,0-9.784-23.361,32.176,32.176,0,0,0-23.5-9.6" transform="translate(291.238 16.02)" fill="#dedede" stroke="rgba(0,0,0,0)" stroke-width="1"/>
      <path id="Path_3257" data-name="Path 3257" d="M152.92,77.143H79.73c3.055,12.671,14.13,20.613,29.218,20.613,8.813,0,14.668-2,20.158-7.107a12.221,12.221,0,0,1,8.316-3.293A11.976,11.976,0,0,1,145,108.694a57.235,57.235,0,0,1-35.481,12.136c-33.432,0-59.079-25.574-57.193-57.793,1.73-29.558,27.394-52.651,57.28-51.874,30.683.8,53,24.365,53,56.335v.114a9.623,9.623,0,0,1-9.689,9.532m-44.546-42.93c-15.088,0-25.4,7.375-29.409,20.8h58.628c-3.246-13.428-13.559-20.8-29.218-20.8" transform="translate(81.279 15.765)" fill="#dedede" stroke="rgba(0,0,0,0)" stroke-width="1"/>
    </g>
  </g>
</svg>
