<svg id="sign-out-option" xmlns="http://www.w3.org/2000/svg" width="16" height="14" viewBox="0 0 16 14">
  <g id="Group_1729" data-name="Group 1729" transform="translate(0 0)">
    <path id="Path_3349" data-name="Path 3349" d="M6.733,54.065a.3.3,0,0,1-.021-.148c.007-.04-.017-.073-.074-.1s-.084-.046-.084-.06-.04-.026-.121-.033l-.121-.011H3.03A1.59,1.59,0,0,1,1.841,53.2a1.719,1.719,0,0,1-.494-1.236v-7.7a1.719,1.719,0,0,1,.494-1.236,1.591,1.591,0,0,1,1.189-.514H6.4a.31.31,0,0,0,.216-.071.368.368,0,0,0,.105-.213,1.91,1.91,0,0,0,.032-.257,2.829,2.829,0,0,0-.005-.29q-.01-.175-.01-.219a.343.343,0,0,0-.1-.246.318.318,0,0,0-.237-.1H3.03a2.864,2.864,0,0,0-2.141.924A3.1,3.1,0,0,0,0,44.265v7.7A3.1,3.1,0,0,0,.889,54.19a2.863,2.863,0,0,0,2.141.925H6.4a.311.311,0,0,0,.216-.071.368.368,0,0,0,.105-.213,1.914,1.914,0,0,0,.032-.257,2.826,2.826,0,0,0-.005-.29Q6.733,54.109,6.733,54.065Z" transform="translate(0 -41.115)" fill="#555"/>
    <path id="Path_3350" data-name="Path 3350" d="M121.888,54.86,116.166,50.4a.8.8,0,0,0-.947,0,.458.458,0,0,0-.2.369v2.36h-4.713a.748.748,0,0,0-.473.156.458.458,0,0,0-.2.369V56.8a.457.457,0,0,0,.2.369.749.749,0,0,0,.473.156h4.713v2.36a.457.457,0,0,0,.2.369.8.8,0,0,0,.947,0l5.723-4.458a.44.44,0,0,0,0-.738Z" transform="translate(-106.088 -48.229)" fill="#555"/>
  </g>
</svg>
