<svg xmlns="http://www.w3.org/2000/svg" width="26.401" height="22.771" viewBox="0 0 26.401 22.771">
  <g id="analytics" transform="translate(0 -35.201)">
    <g id="Group_1413" data-name="Group 1413" transform="translate(0 35.201)">
      <g id="Group_1412" data-name="Group 1412">
        <path id="Path_3287" data-name="Path 3287" d="M25.454,35.2H.947A.948.948,0,0,0,0,36.148v15.18a.948.948,0,0,0,.947.947H1.4L.24,53.432a.773.773,0,1,0,1.094,1.094l2.25-2.25h7.154v3.134a15.62,15.62,0,0,0-3.722,1.079.773.773,0,1,0,.611,1.421A14.059,14.059,0,0,1,13.2,56.761h.005A14.057,14.057,0,0,1,18.777,57.9l.01,0a.773.773,0,0,0,.611-1.421l-.01,0a15.621,15.621,0,0,0-3.724-1.076V52.275h9.79a.948.948,0,0,0,.947-.947V36.148A.948.948,0,0,0,25.454,35.2ZM14.117,55.241h0c-.3-.017-.606-.027-.91-.027H13.2c-.307,0-.612.01-.917.028V52.276h1.833v2.966Zm10.738-4.513H5.13l1.941-1.941a4.538,4.538,0,1,0-1.249-.939l-2.88,2.88h-1.4V36.748H24.855ZM6.142,44.755A2.978,2.978,0,1,1,9.12,47.733,2.981,2.981,0,0,1,6.142,44.755Z" transform="translate(0 -35.201)" fill="#000"/>
      </g>
    </g>
    <g id="Group_1415" data-name="Group 1415" transform="translate(14.862 44.87)">
      <g id="Group_1414" data-name="Group 1414">
        <path id="Path_3288" data-name="Path 3288" d="M289,222.709a.773.773,0,0,0-.773.773v2.985a.773.773,0,0,0,1.547,0v-2.985A.773.773,0,0,0,289,222.709Z" transform="translate(-288.227 -222.709)" fill="#000"/>
      </g>
    </g>
    <g id="Group_1417" data-name="Group 1417" transform="translate(17.286 39.714)">
      <g id="Group_1416" data-name="Group 1416">
        <path id="Path_3289" data-name="Path 3289" d="M335.991,122.729a.773.773,0,0,0-.773.773v8.14a.773.773,0,1,0,1.547,0V123.5A.773.773,0,0,0,335.991,122.729Z" transform="translate(-335.218 -122.729)" fill="#000"/>
      </g>
    </g>
    <g id="Group_1419" data-name="Group 1419" transform="translate(19.749 41.777)">
      <g id="Group_1418" data-name="Group 1418">
        <path id="Path_3290" data-name="Path 3290" d="M383.759,162.721a.773.773,0,0,0-.773.773v6.078a.773.773,0,1,0,1.547,0v-6.078A.773.773,0,0,0,383.759,162.721Z" transform="translate(-382.986 -162.721)" fill="#000"/>
      </g>
    </g>
    <g id="Group_1421" data-name="Group 1421" transform="translate(22.214 43.839)">
      <g id="Group_1420" data-name="Group 1420">
        <path id="Path_3291" data-name="Path 3291" d="M431.559,202.713a.773.773,0,0,0-.773.773V207.5a.773.773,0,1,0,1.547,0v-4.016A.773.773,0,0,0,431.559,202.713Z" transform="translate(-430.786 -202.713)" fill="#000"/>
      </g>
    </g>
  </g>
</svg>
