<svg xmlns="http://www.w3.org/2000/svg" width="136" height="154" viewBox="0 0 136 154">
  <g id="searching" transform="translate(0)">
    <path id="Path_3333" data-name="Path 3333" d="M320.426,203.776H282.768a7.728,7.728,0,1,0,0,15.456h37.658a7.728,7.728,0,0,0,0-15.456Zm0,10.921H282.768a3.193,3.193,0,1,1,0-6.386h37.658a3.193,3.193,0,0,1,0,6.386Z" transform="translate(-202.806 -142.52)" fill="#e6e6e6"/>
    <path id="Path_3334" data-name="Path 3334" d="M224.928,310.338a2.268,2.268,0,1,0-3.419-2.98,5.707,5.707,0,0,1-8.613,0,2.268,2.268,0,1,0-3.419,2.98A10.245,10.245,0,0,0,224.928,310.338Z" transform="translate(-151.045 -214.39)" fill="#e6e6e6"/>
    <path id="Path_3335" data-name="Path 3335" d="M118.987,50.7H105.418a51.913,51.913,0,0,0-4.942-10.505c-.06-12.19-1.749-21.27-5.159-27.737C90.959,4.19,83.693,0,73.719,0H43.2A18.673,18.673,0,0,0,25.877,12.225a6.388,6.388,0,0,1-4.761,4.111A23.872,23.872,0,0,0,4.387,27.587C-.773,36.2-1.383,48.894,2.566,65.316-2.9,76.9,6.093,90.5,18.175,88.59A49.505,49.505,0,0,0,37.95,112.07a47.436,47.436,0,0,0-11.38,14.551,2.346,2.346,0,0,0,.83,3.063,2.025,2.025,0,0,0,2.85-.892A42.167,42.167,0,0,1,42.158,114.34q1.845.873,3.757,1.573v33.574H38.166V138.274a2.1,2.1,0,1,0-4.2,0v11.214H25.039a52.021,52.021,0,0,1,2.078-12.85,2.294,2.294,0,0,0-1.358-2.837,2.073,2.073,0,0,0-2.639,1.46A57.665,57.665,0,0,0,20.8,151.744,2.182,2.182,0,0,0,22.9,154h76.01a2.182,2.182,0,0,0,2.1-2.256A55.7,55.7,0,0,0,97.024,130.5a82.147,82.147,0,0,0,11.451-9.713,2.376,2.376,0,0,0,.078-3.189,2,2,0,0,0-2.967-.084,77.9,77.9,0,0,1-10.443,8.919,47.862,47.862,0,0,0-11.065-14.17,48.671,48.671,0,0,0,16.705-16.831l14.632,9.826c-1.333,2.045-2.76,4.033-4.257,5.929a2.374,2.374,0,0,0,.242,3.18,2,2,0,0,0,2.959-.26,87.315,87.315,0,0,0,10.916-17.97,15.2,15.2,0,0,0,.778-10.523A18.423,18.423,0,0,0,136,68.98C136,58.9,128.368,50.7,118.987,50.7ZM7.917,30.029a19.8,19.8,0,0,1,13.894-9.244,10.634,10.634,0,0,0,7.942-6.827A14.474,14.474,0,0,1,43.2,4.512H73.719c15.129,0,22.13,10.54,22.542,34.1H35.688c-8.985,0-17.742,6.277-20.262,17.825a14.3,14.3,0,0,0-9.584,4.235C3.076,47.249,3.77,36.953,7.917,30.029ZM5.147,72.595c0-5.838,4.047-10.812,9.482-11.561a54.956,54.956,0,0,0,1.98,23.2C10.383,84.615,5.147,79.268,5.147,72.595Zm14.63-16.269c1.9-7.772,8.442-13.2,15.911-13.2H97.253a47.189,47.189,0,0,1,3.667,7.57h-38.2c-9.381,0-17.014,8.2-17.014,18.285s7.632,18.284,17.014,18.284h37.448c-8.947,20.964-30.946,31.553-51.513,24.845-22.014-7.181-34.721-31.854-28.877-55.784ZM72.95,82.753H62.719c-7.066,0-12.816-6.179-12.816-13.773s5.749-13.773,12.816-13.773H72.95A19.186,19.186,0,0,0,72.95,82.753ZM50.113,117.216a44.585,44.585,0,0,0,21.579.145v32.127H50.113ZM75.89,149.488V116.112q2.016-.71,3.969-1.617c3.763,2.838,16.082,13.716,16.9,34.993Zm46.159-62.521a10.433,10.433,0,0,1-.545,7.179c-1.146,2.515-2.412,4.975-3.777,7.339L102.9,91.527c.651-1.336,1.35-2.959,1.848-4.262,15.1-.01,15.249.105,17.3-.3Zm.031-4.622c-2.193.586-2.049.408-37.951.408-7.066,0-12.815-6.179-12.815-13.773s5.749-13.773,12.815-13.773h34.858c7.066,0,12.816,6.179,12.816,13.773,0,6.346-4.048,11.845-9.722,13.365Z" transform="translate(0)" fill="#e6e6e6"/>
  </g>
</svg>
