<svg xmlns="http://www.w3.org/2000/svg" width="18" height="18" viewBox="0 0 18 18">
  <g id="printer" transform="translate(0 -9.633)">
    <path id="Path_3384" data-name="Path 3384"
      d="M16.73,13.792H14.714V10.223a.568.568,0,0,0-.544-.59H3.83a.568.568,0,0,0-.544.59v3.569H1.27A1.328,1.328,0,0,0,0,15.169v7.57a1.328,1.328,0,0,0,1.27,1.377H3.286v2.927a.568.568,0,0,0,.544.59H14.17a.568.568,0,0,0,.544-.59V24.116H16.73A1.328,1.328,0,0,0,18,22.739v-7.57A1.328,1.328,0,0,0,16.73,13.792ZM4.375,10.813h9.251v2.979H4.375Zm9.251,15.64H4.375V20.6h9.251Zm3.286-3.714a.192.192,0,0,1-.181.2H14.714V20.009a.568.568,0,0,0-.544-.59H3.83a.568.568,0,0,0-.544.59v2.927H1.27a.192.192,0,0,1-.181-.2v-7.57a.192.192,0,0,1,.181-.2H16.73a.192.192,0,0,1,.181.2v7.57Z"
      transform="translate(0 0)" fill="#999" />
    <circle id="Ellipse_307" data-name="Ellipse 307" cx="0.746" cy="0.746" r="0.746"
      transform="translate(13.441 16.433)" fill="#999" />
    <path id="Path_3385" data-name="Path 3385"
      d="M87.7,163.822H82.931a.524.524,0,0,0,0,1.049H87.7a.524.524,0,1,0,0-1.049Z"
      transform="translate(-76.318 -141.964)" fill="#999" />
    <path id="Path_3386" data-name="Path 3386"
      d="M87.7,193.623H82.931a.524.524,0,0,0,0,1.049H87.7a.524.524,0,1,0,0-1.049Z"
      transform="translate(-76.318 -169.123)" fill="#999" />
  </g>
</svg>