<svg xmlns="http://www.w3.org/2000/svg" width="17" height="15" viewBox="0 0 17 15">
  <g id="reload" transform="translate(-3 -5.063)">
    <path id="Path_3336" data-name="Path 3336" d="M3.648,17.342a.634.634,0,0,0,.514-.267l.282-.387a7.392,7.392,0,0,0,4.667,5.828,6.753,6.753,0,0,0,2.329.416,6.983,6.983,0,0,0,5.9-3.347.711.711,0,0,0-.182-.95.627.627,0,0,0-.9.193A5.619,5.619,0,0,1,9.537,21.22a6.045,6.045,0,0,1-3.828-4.886l.555.452a.626.626,0,0,0,.909-.125.712.712,0,0,0-.118-.961L5.517,14.447c-.322-.263-.781-.41-1.073-.008l-1.31,1.8a.712.712,0,0,0,.118.961.625.625,0,0,0,.395.142Z" transform="translate(0 -2.868)" fill="#999"/>
    <path id="Path_3337" data-name="Path 3337" d="M7.012,9.361a.629.629,0,0,0,.9-.193,5.621,5.621,0,0,1,6.722-2.393,6.045,6.045,0,0,1,3.828,4.886l-.555-.452a.625.625,0,0,0-.909.125.712.712,0,0,0,.118.961l1.538,1.252c.328.267.776.416,1.073.008l1.31-1.8a.712.712,0,0,0-.118-.961.625.625,0,0,0-.909.125l-.282.387A7.392,7.392,0,0,0,15.059,5.48,6.882,6.882,0,0,0,6.829,8.41.711.711,0,0,0,7.012,9.361Z" transform="translate(-1.169 0)" fill="#999"/>
  </g>
</svg>
