<svg xmlns="http://www.w3.org/2000/svg" width="13" height="15" viewBox="0 0 13 15">
  <g id="edit" transform="translate(-16.4 -17.025)">
    <path id="Path_3326" data-name="Path 3326" d="M28.943,79.2H16.857a.575.575,0,0,0,0,1.125H28.943a.575.575,0,0,0,0-1.125Z" transform="translate(0 -48.3)" fill="#999"/>
    <path id="Path_3327" data-name="Path 3327" d="M16.424,26.677,16.4,29.326a.511.511,0,0,0,.166.4.676.676,0,0,0,.4.164l2.677-.023a.676.676,0,0,0,.4-.164l9.192-9.1a.577.577,0,0,0,0-.8l-2.653-2.625a.592.592,0,0,0-.805,0l-1.848,1.828L16.59,26.279a.546.546,0,0,0-.166.4Zm11.608-6.47-1.042,1.031L25.142,19.41l1.042-1.031Zm-10.471,6.7,6.775-6.7,1.848,1.828-6.775,6.7H17.561Z" transform="translate(0)" fill="#999"/>
  </g>
</svg>
