<svg xmlns="http://www.w3.org/2000/svg" width="12" height="16" viewBox="0 0 12 16">
  <g id="padlock" transform="translate(-5 -1)">
    <path id="Path_3338" data-name="Path 3338" d="M11,1A4.481,4.481,0,0,0,6.5,5.5v2A1.473,1.473,0,0,0,5,9v6.5A1.473,1.473,0,0,0,6.5,17h9A1.473,1.473,0,0,0,17,15.5V9a1.473,1.473,0,0,0-1.5-1.5v-2A4.481,4.481,0,0,0,11,1Zm5,8v6.5a.472.472,0,0,1-.5.5h-9a.472.472,0,0,1-.5-.5V9a.472.472,0,0,1,.5-.5h9A.472.472,0,0,1,16,9ZM7.5,7.5v-2a3.5,3.5,0,0,1,7,0v2Z" fill="#999"/>
    <path id="Path_3339" data-name="Path 3339" d="M15.5,19A1.473,1.473,0,0,0,14,20.5a1.456,1.456,0,0,0,1,1.4V23a.5.5,0,1,0,1,0V21.9a1.456,1.456,0,0,0,1-1.4A1.473,1.473,0,0,0,15.5,19Zm0,2a.5.5,0,1,1,.5-.5A.472.472,0,0,1,15.5,21Z" transform="translate(-4.5 -9)" fill="#999"/>
  </g>
</svg>
