<svg xmlns="http://www.w3.org/2000/svg" width="24" height="20" viewBox="0 0 24 20">
  <g id="list-interface-symbol" transform="translate(0 0)">
    <g id="_x31_0_21_" transform="translate(0 0)">
      <g id="Group_2001" data-name="Group 2001">
        <path id="Path_3406" data-name="Path 3406"
          d="M2.483,73.862a2.739,2.739,0,0,0,0,5.455,2.739,2.739,0,0,0,0-5.455Zm0,7.273a2.739,2.739,0,0,0,0,5.455,2.739,2.739,0,0,0,0-5.455Zm0,7.273a2.739,2.739,0,0,0,0,5.455,2.739,2.739,0,0,0,0-5.455Zm6.621-10H22.345a1.826,1.826,0,0,0,0-3.636H9.1a1.826,1.826,0,0,0,0,3.636Zm13.241,3.636H9.1a1.826,1.826,0,0,0,0,3.636H22.345a1.826,1.826,0,0,0,0-3.636Zm0,7.273H9.1a1.826,1.826,0,0,0,0,3.636H22.345a1.826,1.826,0,0,0,0-3.636Z"
          transform="translate(0 -73.862)" fill="#ccc" />
      </g>
    </g>
  </g>
</svg>