<svg xmlns="http://www.w3.org/2000/svg" width="26.091" height="22.612" viewBox="0 0 26.091 22.612">
  <g id="Layer_1" transform="translate(-1 -3)">
    <g id="Group_1422" data-name="Group 1422" transform="translate(1 3)">
      <path id="Path_3311" data-name="Path 3311" d="M25.176,13.436a1.917,1.917,0,0,0,1.915-1.915V4.915A1.917,1.917,0,0,0,25.176,3H2.915A1.917,1.917,0,0,0,1,4.915v6.607a1.917,1.917,0,0,0,1.915,1.914h.694v1.739H2.915A1.917,1.917,0,0,0,1,17.091V23.7a1.917,1.917,0,0,0,1.915,1.914H25.176A1.917,1.917,0,0,0,27.091,23.7V17.09a1.917,1.917,0,0,0-1.915-1.914h-.694V13.436ZM2.739,11.521V4.915a.175.175,0,0,1,.176-.176H25.176a.175.175,0,0,1,.175.176v6.607a.175.175,0,0,1-.176.175H2.915a.175.175,0,0,1-.176-.176Zm22.612,5.569V23.7a.175.175,0,0,1-.176.175H2.915a.175.175,0,0,1-.176-.176V17.09a.175.175,0,0,1,.176-.175h22.26A.175.175,0,0,1,25.351,17.091Zm-2.609-1.915H5.348V13.436H22.742Z" transform="translate(-1 -3)" fill="#000"/>
      <circle id="Ellipse_275" data-name="Ellipse 275" cx="1" cy="1" r="1" transform="translate(10 16.612)" fill="#000"/>
      <circle id="Ellipse_276" data-name="Ellipse 276" cx="1" cy="1" r="1" transform="translate(7 16.612)" fill="#000"/>
      <circle id="Ellipse_277" data-name="Ellipse 277" cx="1" cy="1" r="1" transform="translate(3 16.612)" fill="#000"/>
      <path id="Path_3312" data-name="Path 3312" d="M24.957,22H18.87a.87.87,0,1,0,0,1.739h6.088a.87.87,0,0,0,0-1.739Z" transform="translate(-3.215 -5.476)" fill="#000"/>
      <ellipse id="Ellipse_278" data-name="Ellipse 278" cx="1" cy="0.5" rx="1" ry="0.5" transform="translate(10 4.612)" fill="#000"/>
      <ellipse id="Ellipse_279" data-name="Ellipse 279" cx="1" cy="0.5" rx="1" ry="0.5" transform="translate(7 4.612)" fill="#000"/>
      <ellipse id="Ellipse_280" data-name="Ellipse 280" cx="1" cy="0.5" rx="1" ry="0.5" transform="translate(3 4.612)" fill="#000"/>
      <path id="Path_3313" data-name="Path 3313" d="M18.87,9.739h6.088a.87.87,0,1,0,0-1.739H18.87a.87.87,0,1,0,0,1.739Z" transform="translate(-3.215 -3.652)" fill="#000"/>
    </g>
  </g>
</svg>
