<svg xmlns="http://www.w3.org/2000/svg" width="18" height="18" viewBox="0 0 18 18">
  <g id="car-service" transform="translate(-10 -10)">
    <path id="Path_3416" data-name="Path 3416" d="M24.375,56.771a.937.937,0,1,1-.937-.938A.937.937,0,0,1,24.375,56.771Z" transform="translate(-9.687 -35.52)" fill="#999"/>
    <path id="Path_3417" data-name="Path 3417" d="M25.75,10v3.434a1.5,1.5,0,1,1-3,0V10a3.765,3.765,0,0,0-1.7,1.5H14.736a2.248,2.248,0,0,0-2.078,1.389l-2.487,6A2.246,2.246,0,0,0,10,19.75V25h1.5v2.25a.752.752,0,0,0,.75.75h1.5a.752.752,0,0,0,.75-.75V25H22v.75a2.25,2.25,0,0,0,4.5,0V16.417A3.733,3.733,0,0,0,25.75,10ZM22,20.5H16V22h6v1.5H11.5V19.75a1.456,1.456,0,0,1,.061-.3A.75.75,0,0,1,12.25,19H22Zm0-3H12.371l1.673-4.037a.757.757,0,0,1,.162-.243.749.749,0,0,1,.53-.22h5.8a3.877,3.877,0,0,0-.032.434A3.735,3.735,0,0,0,22,16.417Zm3,8.25a.75.75,0,0,1-1.5,0V17.5H25Z" transform="translate(0)" fill="#999"/>
  </g>
</svg>
