<svg id="cloud-computing" xmlns="http://www.w3.org/2000/svg" width="36" height="28" viewBox="0 0 36 28">
  <g id="Group_1066" data-name="Group 1066" transform="translate(0)">
    <g id="Group_1065" data-name="Group 1065">
      <path id="Path_3061" data-name="Path 3061" d="M29.994,64.279A12.385,12.385,0,0,0,14.98,55.4,12.262,12.262,0,0,0,5.652,66.367,6.659,6.659,0,0,0,6.777,79.608H12.4V77.386H6.777a4.444,4.444,0,1,1,0-8.886A1.118,1.118,0,0,0,7.9,67.389a10.136,10.136,0,0,1,20.057-1.944,1.119,1.119,0,0,0,.956.889,5.55,5.55,0,0,1-.765,11.052h-4.5v2.222h4.5a7.766,7.766,0,0,0,1.845-15.329Z" transform="translate(0 -55.032)" fill="#ccc"/>
      <path id="Path_3062" data-name="Path 3062" d="M185.6,249.343l-4.566,4.566,1.609,1.609,2.625-2.614V263.85h2.283V252.9l2.614,2.614,1.609-1.609-4.566-4.566A1.141,1.141,0,0,0,185.6,249.343Z" transform="translate(-168.385 -235.85)" fill="#ccc"/>
    </g>
  </g>
</svg>
