<svg id="user" xmlns="http://www.w3.org/2000/svg" width="26" height="26" viewBox="0 0 26 26">
  <g id="Group_1423" data-name="Group 1423" transform="translate(0 0)">
    <path id="Path_3318" data-name="Path 3318" d="M22.192,3.808A13,13,0,0,0,3.808,22.192,13,13,0,0,0,22.192,3.808ZM13,24.477a11.437,11.437,0,0,1-7.963-3.22,8.381,8.381,0,0,1,15.926,0A11.437,11.437,0,0,1,13,24.477ZM9.191,10.156A3.809,3.809,0,1,1,13,13.965,3.813,3.813,0,0,1,9.191,10.156Zm12.916,9.819a9.931,9.931,0,0,0-5.981-5.5,5.332,5.332,0,1,0-6.252,0,9.931,9.931,0,0,0-5.981,5.5,11.477,11.477,0,1,1,18.214,0Z" transform="translate(0 0)" fill="#161615"/>
  </g>
</svg>
