<svg xmlns="http://www.w3.org/2000/svg" width="19" height="18" viewBox="0 0 19 18">
  <path id="Path_3409" data-name="Path 3409" d="M10.091,2A8.933,8.933,0,0,0,1.31,9.5l-.226-.339A.59.59,0,0,0,.259,9a.6.6,0,0,0-.16.834l1.187,1.8a.593.593,0,0,0,.433.267h.059a.589.589,0,0,0,.419-.177l1.484-1.5a.605.605,0,0,0,0-.849.59.59,0,0,0-.84,0l-.368.375a7.721,7.721,0,1,1,15.237,2.5,7.743,7.743,0,0,1-7.62,6.549,7.281,7.281,0,0,1-6.047-3.048.59.59,0,0,0-.828-.141.6.6,0,0,0-.14.837A8.453,8.453,0,0,0,10.091,20a9,9,0,0,0,0-18Z" transform="translate(0.003 -2)" fill="#999"/>
</svg>
