<svg xmlns="http://www.w3.org/2000/svg" width="24" height="22" viewBox="0 0 24 22">
  <g id="Group_2042" data-name="Group 2042" transform="translate(-1509 -25.031)">
    <g id="Rectangle_1573" data-name="Rectangle 1573" transform="translate(1509 25.031)" fill="#fff" stroke="#f6931f" stroke-width="1">
      <rect width="24" height="22" rx="3" stroke="none"/>
      <rect x="0.5" y="0.5" width="23" height="21" rx="2.5" fill="none"/>
    </g>
    <g id="Layer_2_00000166641659206454329750000016209011312350390425_" transform="translate(1516.344 29.406)">
      <g id="Social_Icon">
        <path id="Location" d="M70.406,0A4.384,4.384,0,0,0,66,4.36c0,1.684,2.157,5.032,3.453,6.893a1.167,1.167,0,0,0,1.612.294,1.2,1.2,0,0,0,.3-.294c1.3-1.861,3.451-5.209,3.451-6.893A4.383,4.383,0,0,0,70.406,0Zm0,6.586a2.18,2.18,0,1,1,2.2-2.18A2.191,2.191,0,0,1,70.406,6.586Z" transform="translate(-66)" fill="#f6931f"/>
      </g>
    </g>
  </g>
</svg>
